<mxfile host="app.diagrams.net" modified="2023-12-14T03:29:30.874Z" agent="Mozilla/5.0 (Windows NT 10.0; Win64; x64) AppleWebKit/537.36 (KHTML, like Gecko) Chrome/120.0.0.0 Safari/537.36" etag="npev0vebTMVfTfsxD756" version="22.1.8" type="github">
  <diagram id="R2lEEEUBdFMjLlhIrx00" name="Page-1">
    <mxGraphModel dx="1154" dy="509" grid="1" gridSize="10" guides="1" tooltips="1" connect="1" arrows="1" fold="1" page="1" pageScale="1" pageWidth="850" pageHeight="1100" math="0" shadow="0" extFonts="Permanent Marker^https://fonts.googleapis.com/css?family=Permanent+Marker">
      <root>
        <mxCell id="0" />
        <mxCell id="1" parent="0" />
        <mxCell id="ir4UWvBM02QtJO0HviSu-25" value="&lt;b style=&quot;&quot;&gt;&lt;i&gt;&amp;nbsp; &amp;nbsp;&lt;/i&gt;&lt;u&gt;aircraft_id: INT&lt;/u&gt;&lt;/b&gt;" style="rounded=0;whiteSpace=wrap;html=1;fillColor=none;align=left;" vertex="1" parent="1">
          <mxGeometry x="160" y="70" width="200" height="30" as="geometry" />
        </mxCell>
        <mxCell id="ir4UWvBM02QtJO0HviSu-26" value="&lt;b&gt;PK&lt;/b&gt;" style="rounded=0;whiteSpace=wrap;html=1;fillColor=none;" vertex="1" parent="1">
          <mxGeometry x="110" y="70" width="50" height="30" as="geometry" />
        </mxCell>
        <mxCell id="ir4UWvBM02QtJO0HviSu-27" value="" style="rounded=0;whiteSpace=wrap;html=1;fillColor=none;" vertex="1" parent="1">
          <mxGeometry x="110" y="100" width="50" height="90" as="geometry" />
        </mxCell>
        <mxCell id="ir4UWvBM02QtJO0HviSu-28" value="&amp;nbsp; &amp;nbsp;model_code: char(4)&lt;br&gt;&lt;br&gt;&amp;nbsp; &amp;nbsp;status: varchar(9)&lt;br&gt;&lt;br&gt;&amp;nbsp; &amp;nbsp;flight_id: INT" style="rounded=0;whiteSpace=wrap;html=1;fillColor=none;align=left;" vertex="1" parent="1">
          <mxGeometry x="160" y="100" width="200" height="90" as="geometry" />
        </mxCell>
        <mxCell id="ir4UWvBM02QtJO0HviSu-29" value="&lt;b&gt;Aircraft&lt;/b&gt;" style="rounded=0;whiteSpace=wrap;html=1;fillColor=none;" vertex="1" parent="1">
          <mxGeometry x="110" y="40" width="250" height="30" as="geometry" />
        </mxCell>
        <mxCell id="ir4UWvBM02QtJO0HviSu-42" value="&lt;b style=&quot;&quot;&gt;&lt;i&gt;&amp;nbsp; &amp;nbsp;&lt;/i&gt;&lt;u&gt;flight_id: INT&lt;/u&gt;&lt;/b&gt;" style="rounded=0;whiteSpace=wrap;html=1;fillColor=none;align=left;" vertex="1" parent="1">
          <mxGeometry x="160" y="550" width="200" height="30" as="geometry" />
        </mxCell>
        <mxCell id="ir4UWvBM02QtJO0HviSu-43" value="&lt;b&gt;PK&lt;/b&gt;" style="rounded=0;whiteSpace=wrap;html=1;fillColor=none;" vertex="1" parent="1">
          <mxGeometry x="110" y="550" width="50" height="30" as="geometry" />
        </mxCell>
        <mxCell id="ir4UWvBM02QtJO0HviSu-44" value="" style="rounded=0;whiteSpace=wrap;html=1;fillColor=none;" vertex="1" parent="1">
          <mxGeometry x="110" y="580" width="50" height="240" as="geometry" />
        </mxCell>
        <mxCell id="ir4UWvBM02QtJO0HviSu-45" value="&amp;nbsp; &amp;nbsp;departure_date: char(8)&lt;br&gt;&lt;br&gt;&amp;nbsp; &amp;nbsp;departure_time: char(4)&lt;br&gt;&lt;br&gt;&amp;nbsp; &amp;nbsp;arrival_date: char(8)&lt;br&gt;&lt;br&gt;&amp;nbsp; &amp;nbsp;arrival_time: char(4)&lt;br&gt;&lt;br&gt;&amp;nbsp; &amp;nbsp;departure_airport: char(3)&lt;br&gt;&lt;br&gt;&amp;nbsp; &amp;nbsp;arrival_airport: char(3)&lt;br&gt;&lt;br&gt;&amp;nbsp; &amp;nbsp;status: varchar(9)&lt;br&gt;&lt;br&gt;&amp;nbsp; &amp;nbsp;aircraft_id: INT" style="rounded=0;whiteSpace=wrap;html=1;fillColor=none;align=left;" vertex="1" parent="1">
          <mxGeometry x="160" y="580" width="200" height="240" as="geometry" />
        </mxCell>
        <mxCell id="ir4UWvBM02QtJO0HviSu-46" value="&lt;b&gt;Flight&lt;/b&gt;" style="rounded=0;whiteSpace=wrap;html=1;fillColor=none;" vertex="1" parent="1">
          <mxGeometry x="110" y="520" width="250" height="30" as="geometry" />
        </mxCell>
        <mxCell id="ir4UWvBM02QtJO0HviSu-47" value="&lt;b style=&quot;&quot;&gt;&lt;i&gt;&amp;nbsp; &amp;nbsp;&lt;/i&gt;&lt;u&gt;pilot_id: INT&lt;/u&gt;&lt;/b&gt;" style="rounded=0;whiteSpace=wrap;html=1;fillColor=none;align=left;" vertex="1" parent="1">
          <mxGeometry x="160" y="270" width="200" height="30" as="geometry" />
        </mxCell>
        <mxCell id="ir4UWvBM02QtJO0HviSu-48" value="&lt;b&gt;PK&lt;/b&gt;" style="rounded=0;whiteSpace=wrap;html=1;fillColor=none;" vertex="1" parent="1">
          <mxGeometry x="110" y="270" width="50" height="30" as="geometry" />
        </mxCell>
        <mxCell id="ir4UWvBM02QtJO0HviSu-49" value="" style="rounded=0;whiteSpace=wrap;html=1;fillColor=none;" vertex="1" parent="1">
          <mxGeometry x="110" y="300" width="50" height="120" as="geometry" />
        </mxCell>
        <mxCell id="ir4UWvBM02QtJO0HviSu-50" value="&amp;nbsp; &amp;nbsp;first_name: varchar(30)&lt;br&gt;&lt;br&gt;&amp;nbsp; &amp;nbsp;last_name: varchar(30)&lt;br&gt;&lt;br&gt;&amp;nbsp; &amp;nbsp;dob: char(8)&lt;br&gt;&lt;br&gt;&amp;nbsp; &amp;nbsp;title: varchar(30)" style="rounded=0;whiteSpace=wrap;html=1;fillColor=none;align=left;" vertex="1" parent="1">
          <mxGeometry x="160" y="300" width="200" height="120" as="geometry" />
        </mxCell>
        <mxCell id="ir4UWvBM02QtJO0HviSu-51" value="&lt;b&gt;Pilot&lt;/b&gt;" style="rounded=0;whiteSpace=wrap;html=1;fillColor=none;" vertex="1" parent="1">
          <mxGeometry x="110" y="240" width="250" height="30" as="geometry" />
        </mxCell>
        <mxCell id="ir4UWvBM02QtJO0HviSu-57" value="&amp;nbsp; &amp;nbsp;&lt;b&gt;&lt;u&gt;flight_id: INT&lt;/u&gt;&lt;br&gt;&lt;br&gt;&amp;nbsp; &amp;nbsp;&lt;u&gt;pilot_id: INT&lt;/u&gt;&lt;br&gt;&lt;/b&gt;" style="rounded=0;whiteSpace=wrap;html=1;fillColor=none;align=left;" vertex="1" parent="1">
          <mxGeometry x="520" y="270" width="200" height="70" as="geometry" />
        </mxCell>
        <mxCell id="ir4UWvBM02QtJO0HviSu-58" value="&lt;b&gt;PK, FK&lt;br&gt;&lt;br&gt;PK, FK&lt;br&gt;&lt;/b&gt;" style="rounded=0;whiteSpace=wrap;html=1;fillColor=none;" vertex="1" parent="1">
          <mxGeometry x="470" y="270" width="50" height="70" as="geometry" />
        </mxCell>
        <mxCell id="ir4UWvBM02QtJO0HviSu-59" value="" style="rounded=0;whiteSpace=wrap;html=1;fillColor=none;" vertex="1" parent="1">
          <mxGeometry x="470" y="340" width="50" height="30" as="geometry" />
        </mxCell>
        <mxCell id="ir4UWvBM02QtJO0HviSu-60" value="" style="rounded=0;whiteSpace=wrap;html=1;fillColor=none;align=left;" vertex="1" parent="1">
          <mxGeometry x="520" y="340" width="200" height="30" as="geometry" />
        </mxCell>
        <mxCell id="ir4UWvBM02QtJO0HviSu-61" value="&lt;b&gt;Instance&lt;/b&gt;" style="rounded=0;whiteSpace=wrap;html=1;fillColor=none;" vertex="1" parent="1">
          <mxGeometry x="470" y="240" width="250" height="30" as="geometry" />
        </mxCell>
        <mxCell id="ir4UWvBM02QtJO0HviSu-62" value="&lt;b&gt;&lt;i&gt;&amp;nbsp; &amp;nbsp;&lt;/i&gt;model_code: char(4)&lt;/b&gt;" style="rounded=0;whiteSpace=wrap;html=1;fillColor=none;align=left;" vertex="1" parent="1">
          <mxGeometry x="520" y="70" width="200" height="30" as="geometry" />
        </mxCell>
        <mxCell id="ir4UWvBM02QtJO0HviSu-63" value="&lt;b&gt;PK&lt;/b&gt;" style="rounded=0;whiteSpace=wrap;html=1;fillColor=none;" vertex="1" parent="1">
          <mxGeometry x="470" y="70" width="50" height="30" as="geometry" />
        </mxCell>
        <mxCell id="ir4UWvBM02QtJO0HviSu-64" value="" style="rounded=0;whiteSpace=wrap;html=1;fillColor=none;" vertex="1" parent="1">
          <mxGeometry x="470" y="100" width="50" height="70" as="geometry" />
        </mxCell>
        <mxCell id="ir4UWvBM02QtJO0HviSu-65" value="&amp;nbsp; &amp;nbsp;name: varchar(50)&lt;br&gt;&lt;br&gt;&amp;nbsp; &amp;nbsp;capacity: INT" style="rounded=0;whiteSpace=wrap;html=1;fillColor=none;align=left;" vertex="1" parent="1">
          <mxGeometry x="520" y="100" width="200" height="70" as="geometry" />
        </mxCell>
        <mxCell id="ir4UWvBM02QtJO0HviSu-66" value="&lt;b&gt;Model&lt;/b&gt;" style="rounded=0;whiteSpace=wrap;html=1;fillColor=none;" vertex="1" parent="1">
          <mxGeometry x="470" y="40" width="250" height="30" as="geometry" />
        </mxCell>
        <mxCell id="ir4UWvBM02QtJO0HviSu-68" value="FK" style="rounded=0;whiteSpace=wrap;html=1;fillColor=none;strokeColor=none;" vertex="1" parent="1">
          <mxGeometry x="110" y="100" width="50" height="30" as="geometry" />
        </mxCell>
        <mxCell id="ir4UWvBM02QtJO0HviSu-70" value="FK" style="rounded=0;whiteSpace=wrap;html=1;fillColor=none;strokeColor=none;" vertex="1" parent="1">
          <mxGeometry x="110" y="160" width="50" height="30" as="geometry" />
        </mxCell>
        <mxCell id="ir4UWvBM02QtJO0HviSu-78" value="FK" style="rounded=0;whiteSpace=wrap;html=1;fillColor=none;strokeColor=none;" vertex="1" parent="1">
          <mxGeometry x="110" y="790" width="50" height="30" as="geometry" />
        </mxCell>
      </root>
    </mxGraphModel>
  </diagram>
</mxfile>
